# xmcd
#
# Track frame offsets:
#	151
#	569
#	2782
#	10525
#	20552
#	22296
#	37641
#	43245
#	54976
#	62450
#	75053
#	76972
#	96422
#	111360
#	126387
#	133423
#	168475
#	193808
#	215162
#	215469
#	242402
#	265576
#	277279
#	288382
#	306410
#	318017
#	333268
#
# Disc length: 4499 seconds
#
# Revision: 1
# Processed by: cddbd v1.5.2PL0 Copyright (c) Steve Scherf et al.
# Submitted via: audiograbber 1.83.01
#
DISCID=7a11911b
DTITLE=Jos Steen - Vol 8 and Vol 11
DYEAR=1900
DGENRE=
TTITLE0=0'05''
TTITLE1=L'étoile Pleure Une Rose
TTITLE2=Zorgwekkend Zorgeloos
TTITLE3=Muziek In Mijn Vergeetput
TTITLE4=I Just Saw A Dwarfin 0'25''
TTITLE5=La Maison De Christophe Colomb
TTITLE6=L'entrée Des Bougnoules
TTITLE7=Je Suis Sur L'autoroute
TTITLE8=Zenuwen
TTITLE9=Gammelannemannene
TTITLE10=Old Shoes
TTITLE11=How To Comb Strings
TTITLE12=Plant Een Dier In De Bergen
TTITLE13=How To Vac Guitars
TTITLE14=How To Play A Painting
TTITLE15=Ode Aan Het Ademen
TTITLE16=How To Bore A Person To Tears
TTITLE17=The 24 Or More String Guitar
TTITLE18=0'02''
TTITLE19=Baron Von Münchausen
TTITLE20=Op De Vriendschap
TTITLE21=De Schampere Guitarist
TTITLE22=Het Sprookje Bijina Uit
TTITLE23=De Graaf Van Kattenrode - Ever
TTITLE24=Het Leven Is Hard
TTITLE25=Vader Gaat Op Stap
TTITLE26=Lief Muziekdoosje
EXTD=
EXTT0=
EXTT1=
EXTT2=
EXTT3=
EXTT4=
EXTT5=
EXTT6=
EXTT7=
EXTT8=
EXTT9=
EXTT10=
EXTT11=
EXTT12=
EXTT13=
EXTT14=
EXTT15=
EXTT16=
EXTT17=
EXTT18=
EXTT19=
EXTT20=
EXTT21=
EXTT22=
EXTT23=
EXTT24=
EXTT25=
EXTT26=
PLAYORDER=
